<svg width="18" height="18" viewBox="0 0 18 18" fill="none" xmlns="http://www.w3.org/2000/svg">
<g clip-path="url(#clip0)">
<path d="M10.4604 0.65911C10.2516 0.55951 10.0056 0.58591 9.8256 0.73111L3.9888 5.40031H1.2C0.5388 5.40031 0 5.93911 0 6.60031V11.4003C0 12.0615 0.5388 12.6003 1.2 12.6003H3.9888L9.8244 17.2695C9.9336 17.3559 10.0668 17.4003 10.2 17.4003C10.2888 17.4003 10.3776 17.3811 10.4604 17.3415C10.668 17.2407 10.8 17.0307 10.8 16.8003V1.20031C10.8 0.96991 10.668 0.75991 10.4604 0.65911ZM3.6 11.4003H1.2V6.60031H3.6V11.4003ZM9.6 15.5511L4.8 11.7111V6.28951L9.6 2.44951V15.5511Z" fill="white"/>
<path d="M13.8383 4.75755C13.6019 4.52355 13.2227 4.52715 12.9899 4.76235C12.7571 4.99875 12.7595 5.37795 12.9947 5.61075C13.9007 6.50715 14.3999 7.71075 14.3999 9.00075C14.3999 10.2907 13.9007 11.4943 12.9947 12.3907C12.7583 12.6235 12.7559 13.0027 12.9899 13.2391C13.1075 13.3579 13.2623 13.4167 13.4159 13.4167C13.5683 13.4167 13.7207 13.3591 13.8383 13.2427C14.9747 12.1207 15.5999 10.6147 15.5999 9.00075C15.5999 7.38675 14.9747 5.88075 13.8383 4.75755Z" fill="white"/>
<path d="M15.5304 3.06628C15.2952 2.83348 14.9148 2.83468 14.682 3.06988C14.4492 3.30508 14.4504 3.68548 14.6856 3.91828C16.0488 5.27068 16.8 7.07548 16.8 9.00028C16.8 10.9251 16.0488 12.7299 14.6856 14.0823C14.4504 14.3151 14.4492 14.6955 14.682 14.9307C14.7996 15.0495 14.9532 15.1083 15.108 15.1083C15.2604 15.1083 15.4128 15.0507 15.5304 14.9343C17.1228 13.3551 18 11.2479 18 9.00028C18 6.75268 17.1228 4.64548 15.5304 3.06628Z" fill="white"/>
</g>
<defs>
<clipPath id="clip0">
<rect width="18" height="18" fill="white"/>
</clipPath>
</defs>
</svg>
