<svg width="34" height="34" viewBox="0 0 34 34" fill="none" xmlns="http://www.w3.org/2000/svg">
<circle cx="17" cy="17" r="17" fill="#6F7BD0"/>
<g clip-path="url(#clip0)">
<path d="M16.9333 25.9331C11.9706 25.9331 7.93335 21.8959 7.93335 16.9331C7.93335 11.9703 11.9706 7.93311 16.9333 7.93311C21.8961 7.93311 25.9333 11.9703 25.9333 16.9331C25.9333 21.8959 21.8961 25.9331 16.9333 25.9331ZM16.9333 9.05811C12.5909 9.05811 9.05835 12.5906 9.05835 16.9331C9.05835 21.2756 12.5909 24.8081 16.9333 24.8081C21.2758 24.8081 24.8083 21.2756 24.8083 16.9331C24.8083 12.5906 21.2758 9.05811 16.9333 9.05811Z" fill="white"/>
<path d="M20.8708 17.4956H12.9958C12.6853 17.4956 12.4333 17.2436 12.4333 16.9331C12.4333 16.6226 12.6853 16.3706 12.9958 16.3706H20.8708C21.1814 16.3706 21.4333 16.6226 21.4333 16.9331C21.4333 17.2436 21.1814 17.4956 20.8708 17.4956Z" fill="white"/>
<path d="M16.9333 21.4331C16.6228 21.4331 16.3708 21.1811 16.3708 20.8706V12.9956C16.3708 12.6851 16.6228 12.4331 16.9333 12.4331C17.2439 12.4331 17.4958 12.6851 17.4958 12.9956V20.8706C17.4958 21.1811 17.2439 21.4331 16.9333 21.4331Z" fill="white"/>
</g>
<defs>
<clipPath id="clip0">
<rect width="18" height="18" fill="white" transform="translate(7.93335 7.93311)"/>
</clipPath>
</defs>
</svg>
