<svg width="78" height="78" viewBox="0 0 78 78" fill="none" xmlns="http://www.w3.org/2000/svg">
<path d="M39 0C17.4945 0 0 17.4945 0 39C0 60.5055 17.4945 78 39 78C60.5055 78 78 60.5055 78 39C78 17.4945 60.5055 0 39 0ZM56.0625 42.2498H42.2498V56.0625C42.2498 57.8567 40.7942 59.3123 39 59.3123C37.2058 59.3123 35.7502 57.8567 35.7502 56.0625V42.2498H21.9375C20.1433 42.2498 18.6877 40.7942 18.6877 39C18.6877 37.2058 20.1433 35.7502 21.9375 35.7502H35.7502V21.9375C35.7502 20.1433 37.2058 18.6877 39 18.6877C40.7942 18.6877 42.2498 20.1433 42.2498 21.9375V35.7502H56.0625C57.8567 35.7502 59.3123 37.2058 59.3123 39C59.3123 40.7942 57.8567 42.2498 56.0625 42.2498Z" fill="#6F7BD0"/>
</svg>
