<svg width="162" height="49" viewBox="0 0 162 49" fill="none" xmlns="http://www.w3.org/2000/svg">
<path d="M11.011 36.6154C11.011 37.7821 11.3606 38.6122 12.0597 39.1058C12.8025 39.5994 13.8293 39.8462 15.1402 39.8462C15.7956 39.8462 16.4729 39.8013 17.172 39.7115C17.8711 39.5769 18.4828 39.4199 19.0071 39.2404C19.4004 39.734 19.7281 40.2949 19.9903 40.9231C20.2961 41.5064 20.4491 42.2244 20.4491 43.0769C20.4491 44.7821 19.8155 46.1731 18.5483 47.25C17.3249 48.3269 15.1402 48.8654 11.9942 48.8654C8.14904 48.8654 5.17781 47.9679 3.08047 46.1731C1.02682 44.3782 0 41.4615 0 37.4231V8.61539C0.48064 8.48077 1.15791 8.34615 2.0318 8.21154C2.94938 8.03205 3.91066 7.94231 4.91564 7.94231C6.8382 7.94231 8.32382 8.30128 9.37249 9.01923C10.4648 9.6923 11.011 11.1506 11.011 13.3942V17.7019H19.597C19.8592 18.1955 20.0995 18.8237 20.318 19.5865C20.5801 20.3045 20.7112 21.1122 20.7112 22.0096C20.7112 23.5801 20.3617 24.7244 19.6626 25.4423C19.0071 26.1154 18.1114 26.4519 16.9753 26.4519H11.011V36.6154Z" fill="#6F7BD0"/>
<path d="M44.2664 46.8462C43.6546 47.3846 42.8244 47.8109 41.7758 48.125C40.7271 48.484 39.4818 48.6635 38.0399 48.6635C36.2484 48.6635 34.6972 48.3942 33.3864 47.8558C32.0756 47.3622 31.2017 46.6442 30.7647 45.7019C30.2841 44.625 29.7161 42.9199 29.0606 40.5865C28.4489 38.2532 27.8372 35.6955 27.2255 32.9135C26.6137 30.1314 26.0239 27.3045 25.4558 24.4327C24.9315 21.5609 24.5164 19.0256 24.2105 16.8269C24.8223 16.1987 25.6306 15.6603 26.6356 15.2115C27.6843 14.7179 28.8203 14.4712 30.0438 14.4712C31.5731 14.4712 32.8184 14.8301 33.7797 15.5481C34.7846 16.2212 35.3964 17.4103 35.6148 19.1154C36.0518 22.5256 36.4232 25.3526 36.729 27.5962C37.0349 29.7949 37.2752 31.6122 37.45 33.0481C37.6685 34.4391 37.8214 35.516 37.9088 36.2788C38.0399 36.9968 38.1491 37.5801 38.2365 38.0288H38.4987C38.6298 37.3109 38.8482 36.2788 39.1541 34.9327C39.5036 33.5417 39.8969 31.9712 40.3338 30.2212C40.7708 28.4712 41.2296 26.5865 41.7102 24.5673C42.1909 22.5032 42.6715 20.4615 43.1521 18.4423C44.026 17.9487 44.8781 17.5673 45.7083 17.2981C46.5822 17.0288 47.6527 16.8942 48.9198 16.8942C50.4491 16.8942 51.76 17.141 52.8523 17.6346C53.9447 18.1282 54.6438 18.891 54.9497 19.9231C55.474 21.8974 55.9765 23.8269 56.4571 25.7115C56.9378 27.5513 57.3747 29.2788 57.768 30.8942C58.1612 32.4647 58.5108 33.8782 58.8167 35.1346C59.1225 36.3462 59.341 37.3109 59.4721 38.0288H59.7998C60.2804 34.5737 60.7392 30.984 61.1762 27.2596C61.6568 23.5353 62.0937 19.7436 62.487 15.8846C63.2735 15.391 64.1037 15.0321 64.9776 14.8077C65.8515 14.5833 66.7254 14.4712 67.5993 14.4712C69.1286 14.4712 70.3957 14.8077 71.4007 15.4808C72.4057 16.1538 72.9081 17.3205 72.9081 18.9808C72.9081 19.6987 72.7989 20.7756 72.5804 22.2115C72.362 23.6474 72.0779 25.2628 71.7284 27.0577C71.3788 28.8526 70.9637 30.7372 70.4831 32.7115C70.0462 34.6859 69.5874 36.5929 69.1067 38.4327C68.6698 40.2724 68.2328 41.9327 67.7959 43.4135C67.4026 44.8942 67.0531 46.0385 66.7472 46.8462C66.1355 47.3846 65.1961 47.8109 63.9289 48.125C62.6618 48.484 61.3072 48.6635 59.8653 48.6635C56.195 48.6635 54.0321 47.7212 53.3767 45.8365C53.1145 45.0288 52.7868 44.0192 52.3935 42.8077C52.0003 41.5513 51.5852 40.1827 51.1483 38.7019C50.7113 37.2212 50.2962 35.6955 49.903 34.125C49.5097 32.5096 49.182 30.9615 48.9198 29.4808C48.614 31.0513 48.2426 32.6891 47.8056 34.3942C47.3687 36.0545 46.9099 37.6923 46.4292 39.3077C45.9923 40.8782 45.5772 42.3365 45.1839 43.6827C44.7907 44.984 44.4848 46.0385 44.2664 46.8462Z" fill="#6F7BD0"/>
<path d="M77.6937 6.05769C77.6937 4.35256 78.2399 2.91666 79.3323 1.75C80.4683 0.583332 81.9539 0 83.7891 0C85.6243 0 87.0881 0.583332 88.1804 1.75C89.3165 2.91666 89.8845 4.35256 89.8845 6.05769C89.8845 7.76282 89.3165 9.19872 88.1804 10.3654C87.0881 11.532 85.6243 12.1154 83.7891 12.1154C81.9539 12.1154 80.4683 11.532 79.3323 10.3654C78.2399 9.19872 77.6937 7.76282 77.6937 6.05769ZM89.3602 47.7885C88.8795 47.8782 88.1586 47.9904 87.1973 48.125C86.2797 48.3045 85.3403 48.3942 84.379 48.3942C83.4177 48.3942 82.5438 48.3269 81.7573 48.1923C81.0145 48.0577 80.381 47.7885 79.8566 47.3846C79.3323 46.9808 78.9172 46.4423 78.6113 45.7692C78.3491 45.0513 78.2181 44.1314 78.2181 43.0096V15.6154C78.6987 15.5256 79.3978 15.4135 80.3154 15.2788C81.2767 15.0994 82.238 15.0096 83.1992 15.0096C84.1605 15.0096 85.0126 15.0769 85.7554 15.2115C86.5419 15.3462 87.1973 15.6154 87.7216 16.0192C88.246 16.4231 88.6392 16.984 88.9014 17.7019C89.2072 18.375 89.3602 19.2724 89.3602 20.3942V47.7885Z" fill="#6F7BD0"/>
<path d="M123.326 38.0962C123.326 41.5064 122.08 44.1763 119.59 46.1058C117.099 48.0353 113.429 49 108.579 49C106.744 49 105.04 48.8654 103.467 48.5962C101.894 48.3269 100.539 47.9231 99.4029 47.3846C98.3106 46.8013 97.4367 46.0833 96.7813 45.2308C96.1695 44.3782 95.8637 43.3686 95.8637 42.2019C95.8637 41.125 96.0821 40.2276 96.5191 39.5096C96.956 38.7468 97.4804 38.1186 98.0921 37.625C99.3592 38.3429 100.801 38.9936 102.418 39.5769C104.078 40.1154 105.979 40.3846 108.12 40.3846C109.475 40.3846 110.501 40.1827 111.2 39.7788C111.943 39.375 112.315 38.8365 112.315 38.1635C112.315 37.5353 112.052 37.0417 111.528 36.6827C111.004 36.3237 110.13 36.032 108.906 35.8077L106.94 35.4038C103.139 34.641 100.299 33.4519 98.4198 31.8365C96.5846 30.1763 95.667 27.8205 95.667 24.7692C95.667 23.109 96.0166 21.6058 96.7157 20.2596C97.4148 18.9135 98.398 17.7917 99.6651 16.8942C100.932 15.9968 102.44 15.3013 104.187 14.8077C105.979 14.3141 107.945 14.0673 110.086 14.0673C111.703 14.0673 113.21 14.2019 114.609 14.4712C116.051 14.6955 117.296 15.0545 118.345 15.5481C119.393 16.0417 120.223 16.6923 120.835 17.5C121.447 18.2628 121.753 19.1827 121.753 20.2596C121.753 21.2917 121.556 22.1891 121.163 22.9519C120.813 23.6699 120.354 24.2756 119.786 24.7692C119.437 24.5449 118.913 24.3205 118.213 24.0962C117.514 23.8269 116.75 23.6026 115.919 23.4231C115.089 23.1987 114.237 23.0192 113.363 22.8846C112.533 22.75 111.768 22.6827 111.069 22.6827C109.627 22.6827 108.513 22.8622 107.727 23.2212C106.94 23.5353 106.547 24.0513 106.547 24.7692C106.547 25.2628 106.765 25.6667 107.202 25.9808C107.639 26.2949 108.47 26.5865 109.693 26.8558L111.725 27.3269C115.919 28.3141 118.891 29.6827 120.638 31.4327C122.43 33.1378 123.326 35.359 123.326 38.0962Z" fill="#6F7BD0"/>
<path d="M162 31.5C162 34.2821 161.585 36.7724 160.755 38.9712C159.925 41.125 158.745 42.9423 157.215 44.4231C155.73 45.9038 153.938 47.0256 151.841 47.7885C149.744 48.5513 147.406 48.9327 144.828 48.9327C142.25 48.9327 139.912 48.5288 137.815 47.7211C135.718 46.9135 133.904 45.7692 132.375 44.2885C130.889 42.7628 129.732 40.9231 128.901 38.7692C128.071 36.6154 127.656 34.1923 127.656 31.5C127.656 28.8526 128.071 26.4519 128.901 24.2981C129.732 22.1442 130.889 20.3269 132.375 18.8462C133.904 17.3205 135.718 16.1538 137.815 15.3462C139.912 14.5385 142.25 14.1346 144.828 14.1346C147.406 14.1346 149.744 14.5609 151.841 15.4135C153.938 16.2212 155.73 17.3878 157.215 18.9135C158.745 20.3942 159.925 22.2115 160.755 24.3654C161.585 26.5192 162 28.8974 162 31.5ZM139.06 31.5C139.06 34.2372 139.563 36.3462 140.568 37.8269C141.617 39.2628 143.058 39.9808 144.894 39.9808C146.729 39.9808 148.127 39.2404 149.088 37.7596C150.093 36.2788 150.596 34.1923 150.596 31.5C150.596 28.8077 150.093 26.7436 149.088 25.3077C148.083 23.8269 146.663 23.0865 144.828 23.0865C142.993 23.0865 141.573 23.8269 140.568 25.3077C139.563 26.7436 139.06 28.8077 139.06 31.5Z" fill="#6F7BD0"/>
</svg>
