<svg width="16" height="16" viewBox="0 0 16 16" fill="none" xmlns="http://www.w3.org/2000/svg">
<g clip-path="url(#clip0)">
<path d="M12.1714 0C11.1489 0 10.1875 0.398451 9.46432 1.12159L6.48293 4.10297C6.71079 4.07116 6.93842 4.03662 7.17134 4.03662C7.81353 4.03662 8.44282 4.16138 9.02133 4.39271L10.8784 2.53564C11.2241 2.19041 11.6831 1.99998 12.1714 1.99998C13.1797 1.99998 14 2.82029 14 3.8286C14 4.31689 13.8095 4.77586 13.4643 5.12155L10.1216 8.46434C9.43018 9.15476 8.22707 9.15526 7.53565 8.46484L6.12256 9.87988C6.84523 10.6021 7.80664 11 8.82861 11C9.85107 11 10.8125 10.6016 11.5356 9.87842L14.8784 6.53564C15.6016 5.81251 16 4.85106 16 3.8286C16 1.71729 14.2827 0 12.1714 0V0Z" fill="#B5B5B5"/>
<path d="M6.96112 11.6251L5.12159 13.4646C4.77589 13.8098 4.31689 14.0003 3.82863 14.0003C2.82032 14.0003 2.00002 13.18 2.00002 12.1716C2.00002 11.6834 2.19044 11.2244 2.53567 10.8787L5.87846 7.5359C6.56987 6.84548 7.77298 6.84498 8.4644 7.53541L9.87749 6.12036C8.43169 4.67602 5.9107 4.67555 4.4644 6.12182L1.12159 9.4646C0.39842 10.1877 0 11.1492 0 12.1716C0 14.2829 1.71729 16.0002 3.8286 16.0002C4.85106 16.0002 5.81248 15.6018 6.53564 14.8786L9.47746 11.9368C9.26267 11.9657 9.049 12.0002 8.82859 12.0002C8.17649 12.0002 7.54491 11.8699 6.96112 11.6251Z" fill="#B5B5B5"/>
</g>
<defs>
<clipPath id="clip0">
<rect width="16" height="16" fill="white"/>
</clipPath>
</defs>
</svg>
