<svg width="16" height="16" viewBox="0 0 16 16" fill="none" xmlns="http://www.w3.org/2000/svg">
<g clip-path="url(#clip0)">
<path d="M13.6488 2.35025C10.515 -0.783537 5.48507 -0.784599 2.35025 2.35025C-0.783537 5.48401 -0.784599 10.514 2.35025 13.6488C5.48401 16.7826 10.514 16.7836 13.6488 13.6488C16.7826 10.515 16.7836 5.48507 13.6488 2.35025ZM7.99951 15.0606C4.106 15.0606 0.938405 11.893 0.938405 7.99951C0.938405 4.106 4.106 0.938405 7.99951 0.938405C11.893 0.938405 15.0606 4.106 15.0606 7.99951C15.0606 11.893 11.893 15.0606 7.99951 15.0606Z" fill="black"/>
<path d="M10.3012 5.40529C10.1075 5.23348 9.81135 5.25114 9.63954 5.44475C9.46773 5.63834 9.48538 5.93456 9.679 6.10637C10.2203 6.58675 10.5307 7.27692 10.5307 7.99997C10.5307 9.39544 9.39543 10.5307 7.99996 10.5307C6.60448 10.5307 5.46921 9.39544 5.46921 7.99997C5.46921 7.26977 5.7848 6.57506 6.33504 6.09394C6.52987 5.92357 6.54974 5.6275 6.37934 5.43263C6.20897 5.23776 5.9129 5.21796 5.71803 5.38833C4.96421 6.04745 4.53186 6.99935 4.53186 7.99997C4.53186 9.91228 6.08762 11.468 7.99993 11.468C9.91224 11.468 11.468 9.91228 11.468 7.99997C11.468 7.0091 11.0427 6.06341 10.3012 5.40529Z" fill="black"/>
<path d="M8.00003 7.21905C8.25885 7.21905 8.46868 7.00921 8.46868 6.75039V4.25088C8.46868 3.99206 8.25885 3.78223 8.00003 3.78223C7.7412 3.78223 7.53137 3.99206 7.53137 4.25088V6.75039C7.53137 7.00925 7.7412 7.21905 8.00003 7.21905Z" fill="black"/>
</g>
<defs>
<clipPath id="clip0">
<rect width="16" height="16" fill="white"/>
</clipPath>
</defs>
</svg>
