<svg width="14" height="13" viewBox="0 0 14 13" fill="none" xmlns="http://www.w3.org/2000/svg">
<path d="M5.80394 9.82954L4.15423 11.3491C3.47029 11.9791 2.36271 11.9791 1.67934 11.3493C0.995841 10.7197 0.995842 9.69935 1.6792 9.06989L4.97921 6.03018C5.66257 5.40069 6.77026 5.40069 7.45363 6.03018C7.68143 6.24002 8.0508 6.24002 8.27861 6.03018C8.50641 5.82034 8.50641 5.48011 8.27861 5.27027C7.13961 4.22111 5.29323 4.22111 4.15423 5.27027L0.854252 8.30995C-0.284751 9.35911 -0.284751 11.0599 0.854252 12.109C1.99312 13.1587 3.83963 13.1587 4.97923 12.109L6.62895 10.5894C6.85675 10.3796 6.85675 10.0394 6.62895 9.82952C6.40114 9.61968 6.03175 9.6197 5.80394 9.82954Z" fill="white"/>
<path d="M13.1459 0.786872C12.0068 -0.262291 10.1598 -0.262291 9.02083 0.786872L7.04151 2.61005C6.8137 2.81988 6.8137 3.16012 7.04151 3.36996C7.26932 3.57979 7.63869 3.57979 7.8665 3.36996L9.84582 1.54678C10.5292 0.917293 11.6375 0.917293 12.3209 1.54678C13.0042 2.17624 13.0042 3.19656 12.3209 3.82603L8.69124 7.16934C8.00784 7.79883 6.90017 7.79883 6.21679 7.16934C5.98898 6.95951 5.61961 6.95951 5.3918 7.16934C5.164 7.37918 5.164 7.71942 5.3918 7.92925C6.53082 8.97842 8.37722 8.97842 9.51623 7.92925L13.1459 4.58596C14.2849 3.5368 14.2849 1.83603 13.1459 0.786872Z" fill="white"/>
</svg>
