<svg width="18" height="12" viewBox="0 0 18 12" fill="none" xmlns="http://www.w3.org/2000/svg">
<path d="M14.2499 8.77523C14.1539 8.77523 14.0579 8.7394 13.9844 8.66847L8.73444 3.54972C8.58819 3.40713 8.58819 3.17532 8.73444 3.03273C8.88069 2.89013 9.11844 2.89013 9.26469 3.03273L14.5147 8.15148C14.6609 8.29407 14.6609 8.52588 14.5147 8.66847C14.4419 8.7394 14.3459 8.77523 14.2499 8.77523Z" fill="#999999"/>
<path d="M16.125 11.7H5.625C5.52075 11.7 5.42175 11.6576 5.35125 11.5837L0.10125 6.09936C-0.03375 5.95896 -0.03375 5.74104 0.10125 5.59991L5.35125 0.115537C5.42175 0.0424125 5.52075 0 5.625 0H16.125C17.1593 0 18 0.820462 18 1.82812V9.87187C18 10.8795 17.1593 11.7 16.125 11.7ZM5.78775 10.9688H16.125C16.7453 10.9688 17.25 10.4766 17.25 9.87187V1.82812C17.25 1.22338 16.7453 0.73125 16.125 0.73125H5.78775L0.888 5.85L5.78775 10.9688Z" fill="#999999"/>
<path d="M8.99994 8.77523C8.90394 8.77523 8.80794 8.7394 8.73444 8.66847C8.58819 8.52588 8.58819 8.29407 8.73444 8.15148L13.9844 3.03273C14.1307 2.89013 14.3684 2.89013 14.5147 3.03273C14.6609 3.17532 14.6609 3.40713 14.5147 3.54972L9.26469 8.66847C9.19194 8.7394 9.09594 8.77523 8.99994 8.77523Z" fill="#999999"/>
</svg>
