<svg width="8" height="5" viewBox="0 0 8 5" fill="none" xmlns="http://www.w3.org/2000/svg">
<path d="M0.137969 1.05972C0.049668 0.965865 0 0.838107 0 0.70483C0 0.571553 0.049668 0.443796 0.137969 0.349942L0.32454 0.150004C0.4123 0.0523768 0.533887 -0.00191395 0.660369 5.1574e-05H7.33963C7.46611 -0.00191395 7.5877 0.0523768 7.67546 0.150004L7.86203 0.349942C7.95033 0.443796 8 0.571553 8 0.70483C8 0.838107 7.95033 0.965865 7.86203 1.05972L4.3265 4.84853C4.24186 4.94518 4.12368 5 4 5C3.87632 5 3.75814 4.94518 3.6735 4.84853L0.137969 1.05972Z" fill="#6F7BD0"/>
</svg>
