<svg width="14" height="15" viewBox="0 0 14 15" fill="none" xmlns="http://www.w3.org/2000/svg">
<path d="M14 7.65742C14 7.19658 13.9583 6.75908 13.8868 6.33325H7.15198V8.96408H11.0081C10.8352 9.82741 10.3286 10.5566 9.57769 11.0524V12.8024H11.8782C13.2252 11.5832 14 9.78658 14 7.65742Z" fill="white"/>
<path d="M7.15194 14.5001C9.08298 14.5001 10.6981 13.8701 11.8782 12.8026L9.57765 11.0526C8.93398 11.4726 8.11746 11.7293 7.15194 11.7293C5.28647 11.7293 3.70707 10.4984 3.14087 8.83594H0.768799V10.6384C1.94292 12.9251 4.35671 14.5001 7.15194 14.5001Z" fill="white"/>
<path d="M3.14091 8.83573C2.99191 8.41573 2.91443 7.96657 2.91443 7.4999C2.91443 7.03323 2.99787 6.58407 3.14091 6.16407V4.36157H0.768837C0.280119 5.30657 0 6.36823 0 7.4999C0 8.63156 0.280119 9.69323 0.768837 10.6382L3.14091 8.83573Z" fill="white"/>
<path d="M7.15194 3.27083C8.20686 3.27083 9.14853 3.62666 9.89353 4.32083L11.9318 2.32583C10.6981 1.19417 9.08298 0.5 7.15194 0.5C4.35671 0.5 1.94292 2.075 0.768799 4.36166L3.14087 6.16416C3.70707 4.50166 5.28647 3.27083 7.15194 3.27083Z" fill="white"/>
</svg>
