<svg width="52" height="52" viewBox="0 0 52 52" fill="none" xmlns="http://www.w3.org/2000/svg">
<path d="M49.8918 42.1622H2.10798C1.92161 42.1622 1.74287 42.0882 1.61109 41.9564C1.47931 41.8246 1.40527 41.6459 1.40527 41.4595V10.5406C1.40527 10.3542 1.47931 10.1755 1.61109 10.0437C1.74287 9.91193 1.92161 9.83789 2.10798 9.83789H49.8918C50.0781 9.83789 50.2569 9.91193 50.3886 10.0437C50.5204 10.1755 50.5945 10.3542 50.5945 10.5406V41.4595C50.5945 41.6459 50.5204 41.8246 50.3886 41.9564C50.2569 42.0882 50.0781 42.1622 49.8918 42.1622ZM2.81068 40.7568H49.1891V11.2433H2.81068V40.7568Z" fill="white"/>
<path d="M26 28.8109C24.1804 28.8117 22.417 28.1808 21.0108 27.026L1.65839 11.0817C1.51489 10.9624 1.42465 10.791 1.40751 10.6052C1.39038 10.4194 1.44777 10.2344 1.56704 10.0909C1.68632 9.94739 1.85772 9.85714 2.04353 9.84001C2.22934 9.82288 2.41435 9.88026 2.55785 9.99954L21.9033 25.9368C23.0582 26.8846 24.506 27.4027 26 27.4027C27.494 27.4027 28.9419 26.8846 30.0968 25.9368L49.4422 9.99954C49.5857 9.88026 49.7707 9.82288 49.9565 9.84001C50.1423 9.85714 50.3137 9.94739 50.433 10.0909C50.5523 10.2344 50.6096 10.4194 50.5925 10.6052C50.5754 10.791 50.4851 10.9624 50.3416 11.0817L30.9892 27.019C29.584 28.1763 27.8205 28.8097 26 28.8109Z" fill="white"/>
<path d="M2.10824 42.1621C2.005 42.1623 1.903 42.1397 1.80948 42.096C1.71596 42.0523 1.63323 41.9885 1.56716 41.9092C1.50799 41.8381 1.46341 41.7562 1.43597 41.6679C1.40853 41.5796 1.39878 41.4868 1.40726 41.3948C1.41575 41.3028 1.44231 41.2133 1.48542 41.1315C1.52853 41.0498 1.58735 40.9773 1.65851 40.9183L20.4277 25.4589C20.5712 25.3396 20.7562 25.2822 20.942 25.2994C21.1278 25.3165 21.2992 25.4067 21.4185 25.5502C21.5378 25.6937 21.5952 25.8788 21.578 26.0646C21.5609 26.2504 21.4707 26.4218 21.3272 26.5411L2.55797 42.0005C2.43154 42.1053 2.27242 42.1625 2.10824 42.1621Z" fill="white"/>
<path d="M49.892 42.1621C49.7278 42.1625 49.5687 42.1053 49.4422 42.0005L30.673 26.5411C30.5295 26.4218 30.4393 26.2504 30.4222 26.0646C30.405 25.8788 30.4624 25.6937 30.5817 25.5502C30.701 25.4067 30.8724 25.3165 31.0582 25.2994C31.244 25.2822 31.429 25.3396 31.5725 25.4589L50.3417 40.9183C50.4128 40.9773 50.4717 41.0498 50.5148 41.1315C50.5579 41.2133 50.5844 41.3028 50.5929 41.3948C50.6014 41.4868 50.5917 41.5796 50.5642 41.6679C50.5368 41.7562 50.4922 41.8381 50.433 41.9092C50.367 41.9885 50.2842 42.0523 50.1907 42.096C50.0972 42.1397 49.9952 42.1623 49.892 42.1621Z" fill="white"/>
</svg>
