<svg width="12" height="14" viewBox="0 0 12 14" fill="none" xmlns="http://www.w3.org/2000/svg">
<path d="M4.5 13.5552V0.441146C4.5 0.196875 4.24688 0 3.92813 0H0.571875C0.253125 0 0 0.196875 0 0.441146V13.5552C0 13.7995 0.253125 14 0.571875 14H3.92813C4.24688 14 4.5 13.8031 4.5 13.5552Z" fill="#5167F1"/>
<path d="M11.4281 0H8.07188C7.75781 0 7.5 0.196875 7.5 0.441146V13.5552C7.5 13.7995 7.75313 14 8.07188 14H11.4281C11.7422 14 12 13.8031 12 13.5552V0.441146C12 0.196875 11.7469 0 11.4281 0Z" fill="#5167F1"/>
</svg>
