<svg width="15" height="13" viewBox="0 0 15 13" fill="none" xmlns="http://www.w3.org/2000/svg">
<path d="M13 1H2.33333C1.59695 1 1 1.59695 1 2.33333V10.3333C1 11.0697 1.59695 11.6667 2.33333 11.6667H13C13.7364 11.6667 14.3333 11.0697 14.3333 10.3333V2.33333C14.3333 1.59695 13.7364 1 13 1Z" stroke="black" stroke-width="0.8" stroke-linecap="round" stroke-linejoin="round"/>
<path d="M12.9997 7H9.66634C8.92996 7 8.33301 7.59695 8.33301 8.33333V10.3333C8.33301 11.0697 8.92996 11.6667 9.66634 11.6667H12.9997C13.7361 11.6667 14.333 11.0697 14.333 10.3333V8.33333C14.333 7.59695 13.7361 7 12.9997 7Z" stroke="black" stroke-width="0.8" stroke-linecap="round" stroke-linejoin="round"/>
</svg>
