<svg width="14" height="14" viewBox="0 0 14 14" fill="none" xmlns="http://www.w3.org/2000/svg">
<path d="M13.1935 2.9268L6.52681 9.59347C6.26681 9.85347 5.84681 9.85347 5.58681 9.59347L3.70015 7.7068C3.44015 7.4468 3.44015 7.0268 3.70015 6.7668C3.96015 6.5068 4.38015 6.5068 4.64015 6.7668L6.05348 8.18014L12.2468 1.9868C12.5068 1.7268 12.9268 1.7268 13.1868 1.9868C13.4535 2.2468 13.4535 2.6668 13.1935 2.9268ZM9.51348 0.826802C8.38682 0.366802 7.10681 0.206802 5.77348 0.446802C3.06015 0.933469 0.893481 3.12014 0.433481 5.83347C-0.326519 10.3335 3.42015 14.1868 7.89348 13.6068C10.5335 13.2668 12.7468 11.3001 13.4401 8.73347C13.7068 7.75347 13.7335 6.8068 13.5801 5.92014C13.4935 5.3868 12.8335 5.18013 12.4468 5.56013C12.2935 5.71347 12.2268 5.94014 12.2668 6.15347C12.4135 7.04013 12.3468 7.9868 11.9201 8.99347C11.1468 10.8001 9.46681 12.1268 7.51348 12.3068C4.11348 12.6201 1.29348 9.74013 1.71348 6.32013C2.00015 3.96013 3.90015 2.04014 6.25348 1.71347C7.40681 1.55347 8.50015 1.77347 9.43348 2.25347C9.69348 2.3868 10.0068 2.34013 10.2135 2.13347C10.5335 1.81347 10.4535 1.27347 10.0535 1.0668C9.87348 0.986802 9.69348 0.900135 9.51348 0.826802Z" fill="black"/>
</svg>
