<svg width="14" height="14" viewBox="0 0 14 14" fill="none" xmlns="http://www.w3.org/2000/svg">
<path d="M5.75707 3.26647C5.8861 3.26647 5.9904 3.16194 5.9904 3.03314C5.9904 2.90434 5.8861 2.7998 5.75707 2.7998H5.29693C5.1679 2.7998 5.0636 2.90434 5.0636 3.03314C5.0636 3.16194 5.1679 3.26647 5.29693 3.26647H5.75707Z" fill="black"/>
<path d="M7.13696 3.26647C7.26599 3.26647 7.37029 3.16194 7.37029 3.03314C7.37029 2.90434 7.26599 2.7998 7.13696 2.7998H6.67706C6.54803 2.7998 6.44373 2.90434 6.44373 3.03314C6.44373 3.16194 6.54803 3.26647 6.67706 3.26647H7.13696Z" fill="black"/>
<path d="M8.51684 3.26647C8.64588 3.26647 8.75018 3.16194 8.75018 3.03314C8.75018 2.90434 8.64588 2.7998 8.51684 2.7998H8.05694C7.92791 2.7998 7.82361 2.90434 7.82361 3.03314C7.82361 3.16194 7.92791 3.26647 8.05694 3.26647H8.51684Z" fill="black"/>
<path d="M5.97801 13.5332H5.51788C5.38885 13.5332 5.28455 13.6377 5.28455 13.7665C5.28455 13.8953 5.38885 13.9999 5.51788 13.9999H5.97801C6.10705 13.9999 6.21135 13.8953 6.21135 13.7665C6.21135 13.6377 6.10705 13.5332 5.97801 13.5332Z" fill="black"/>
<path d="M7.3579 13.5332H6.89776C6.76873 13.5332 6.66443 13.6377 6.66443 13.7665C6.66443 13.8953 6.76873 13.9999 6.89776 13.9999H7.3579C7.48693 13.9999 7.59123 13.8953 7.59123 13.7665C7.59123 13.6377 7.48693 13.5332 7.3579 13.5332Z" fill="black"/>
<path d="M8.7379 13.5332H8.27777C8.14873 13.5332 8.04443 13.6377 8.04443 13.7665C8.04443 13.8953 8.14873 13.9999 8.27777 13.9999H8.7379C8.86693 13.9999 8.97123 13.8953 8.97123 13.7665C8.97123 13.6377 8.86693 13.5332 8.7379 13.5332Z" fill="black"/>
<path d="M10.1178 13.5332H9.65765C9.52862 13.5332 9.42432 13.6377 9.42432 13.7665C9.42432 13.8953 9.52862 13.9999 9.65765 13.9999H10.1178C10.2468 13.9999 10.3511 13.8953 10.3511 13.7665C10.3511 13.6377 10.2468 13.5332 10.1178 13.5332Z" fill="black"/>
<path d="M9.89685 3.26647C10.0259 3.26647 10.1302 3.16194 10.1302 3.03314C10.1302 2.90434 10.0259 2.7998 9.89685 2.7998H9.43695C9.30791 2.7998 9.20361 2.90434 9.20361 3.03314C9.20361 3.16194 9.30791 3.26647 9.43695 3.26647H9.89685Z" fill="black"/>
<path d="M3.2891 13.0478C3.25597 12.9232 3.12834 12.8497 3.0035 12.8822C2.87914 12.9153 2.8047 13.0429 2.83784 13.1675C2.88754 13.3547 2.98624 13.5271 3.12344 13.6662C3.16894 13.7124 3.22937 13.7357 3.28957 13.7357C3.34884 13.7357 3.4081 13.7133 3.45337 13.6685C3.5453 13.578 3.546 13.4303 3.4557 13.3386C3.37544 13.2571 3.3178 13.1566 3.2891 13.0478Z" fill="black"/>
<path d="M2.95348 3.35473C2.85548 3.52203 2.80251 3.71336 2.79995 3.90773C2.79831 4.03653 2.90145 4.14223 3.03025 4.1441C3.03118 4.1441 3.03235 4.1441 3.03328 4.1441C3.16091 4.1441 3.26498 4.04166 3.26661 3.9138C3.26801 3.80016 3.29905 3.6884 3.35645 3.59063C3.42131 3.47933 3.38421 3.33653 3.27315 3.27143C3.16161 3.2061 3.01881 3.24343 2.95348 3.35473Z" fill="black"/>
<path d="M11.2768 3.26667C11.4058 3.26667 11.5101 3.16213 11.5101 3.03333C11.5101 2.90453 11.4058 2.8 11.2768 2.8H11.2V1.12233C11.2 0.503533 10.6967 0 10.0777 0H1.12233C0.5033 0 0 0.503533 0 1.12233V10.0777C0 10.6965 0.5033 11.2 1.12233 11.2H3.03333C3.16237 11.2 3.26667 11.0955 3.26667 10.9667C3.26667 10.9389 3.25967 10.9132 3.2508 10.8885C3.25967 10.864 3.26667 10.8381 3.26667 10.8106V10.3504C3.26667 10.2216 3.16237 10.1171 3.03333 10.1171C2.9043 10.1171 2.8 10.2216 2.8 10.3504V10.7333H1.12233C0.7609 10.7333 0.466667 10.4391 0.466667 10.0777V1.12233C0.466667 0.7609 0.7609 0.466667 1.12233 0.466667H10.0777C10.4391 0.466667 10.7333 0.7609 10.7333 1.12233V2.8168C10.6461 2.85063 10.5835 2.93417 10.5835 3.03333C10.5835 3.16213 10.6878 3.26667 10.8169 3.26667H11.2768Z" fill="black"/>
<path d="M3.03338 7.35742C2.90435 7.35742 2.80005 7.46195 2.80005 7.59075V8.05065C2.80005 8.17945 2.90435 8.28399 3.03338 8.28399C3.16242 8.28399 3.26672 8.17945 3.26672 8.05065V7.59075C3.26672 7.46195 3.16242 7.35742 3.03338 7.35742Z" fill="black"/>
<path d="M3.03338 12.4239C3.16242 12.4239 3.26672 12.3193 3.26672 12.1905V11.7304C3.26672 11.6016 3.16242 11.4971 3.03338 11.4971C2.90435 11.4971 2.80005 11.6016 2.80005 11.7304V12.1905C2.80005 12.3193 2.90435 12.4239 3.03338 12.4239Z" fill="black"/>
<path d="M4.37707 3.26647C4.5061 3.26647 4.6104 3.16194 4.6104 3.03314C4.6104 2.90434 4.5061 2.7998 4.37707 2.7998H3.91693C3.7879 2.7998 3.6864 2.90434 3.6864 3.03314C3.6864 3.16194 3.79327 3.26647 3.9223 3.26647H4.37707Z" fill="black"/>
<path d="M3.26672 4.8305C3.26672 4.7017 3.16242 4.59717 3.03338 4.59717C2.90435 4.59717 2.80005 4.7017 2.80005 4.8305V5.2904C2.80005 5.4192 2.90435 5.52373 3.03338 5.52373C3.16242 5.52373 3.26672 5.4192 3.26672 5.2904V4.8305Z" fill="black"/>
<path d="M4.59801 13.5332H4.13787C4.00884 13.5332 3.90454 13.6377 3.90454 13.7665C3.90454 13.8953 4.00884 13.9999 4.13787 13.9999H4.59801C4.72704 13.9999 4.83134 13.8953 4.83134 13.7665C4.83134 13.6377 4.72704 13.5332 4.59801 13.5332Z" fill="black"/>
<path d="M3.03338 9.66387C3.16242 9.66387 3.26672 9.55934 3.26672 9.43054V8.97064C3.26672 8.84184 3.16242 8.7373 3.03338 8.7373C2.90435 8.7373 2.80005 8.84184 2.80005 8.97064V9.43054C2.80005 9.55934 2.90435 9.66387 3.03338 9.66387Z" fill="black"/>
<path d="M3.26672 6.21087C3.26672 6.08207 3.16242 5.97754 3.03338 5.97754C2.90435 5.97754 2.80005 6.08207 2.80005 6.21087V6.67077C2.80005 6.79957 2.90435 6.90411 3.03338 6.90411C3.16242 6.90411 3.26672 6.79957 3.26672 6.67077V6.21087Z" fill="black"/>
<path d="M13.7349 3.92055C13.7554 3.92055 13.7762 3.91775 13.7967 3.91215C13.9211 3.87809 13.9944 3.74975 13.9603 3.62562C13.909 3.43872 13.8096 3.26699 13.6719 3.12909C13.5807 3.03762 13.4332 3.03786 13.342 3.12886C13.2505 3.21986 13.2505 3.36755 13.3415 3.45902C13.422 3.53975 13.4803 3.63985 13.5102 3.74882C13.5384 3.85242 13.6325 3.92055 13.7349 3.92055Z" fill="black"/>
<path d="M12.8777 13.5332H12.4175C12.2885 13.5332 12.1842 13.6377 12.1842 13.7665C12.1842 13.8953 12.2885 13.9999 12.4175 13.9999H12.8844L12.8879 13.7665V13.9999C13.017 13.9999 13.1161 13.8956 13.1161 13.7665C13.1161 13.6375 13.0067 13.5332 12.8777 13.5332Z" fill="black"/>
<path d="M12.657 3.26647C12.786 3.26647 12.8903 3.16194 12.8903 3.03314C12.8903 2.90434 12.786 2.7998 12.657 2.7998H12.1968C12.0678 2.7998 11.9635 2.90434 11.9635 3.03314C11.9635 3.16194 12.0678 3.26647 12.1968 3.26647H12.657Z" fill="black"/>
<path d="M13.7683 12.6509C13.7678 12.6509 13.7671 12.6509 13.7667 12.6509C13.6386 12.6509 13.5343 12.7542 13.5333 12.8826C13.5324 12.9964 13.5021 13.1082 13.4456 13.2057C13.3807 13.3173 13.4188 13.4601 13.5301 13.5247C13.5669 13.5462 13.6071 13.5562 13.647 13.5562C13.7275 13.5562 13.8056 13.5147 13.849 13.44C13.9463 13.2722 13.9986 13.0807 13.9998 12.8858C14.0009 12.757 13.8973 12.6518 13.7683 12.6509Z" fill="black"/>
<path d="M13.7667 11.271C13.6376 11.271 13.5333 11.3755 13.5333 11.5043V11.9642C13.5333 12.093 13.6376 12.1976 13.7667 12.1976C13.8957 12.1976 14 12.093 14 11.9642V11.5043C14 11.3755 13.8957 11.271 13.7667 11.271Z" fill="black"/>
<path d="M13.7667 7.13135C13.6376 7.13135 13.5333 7.23588 13.5333 7.36468V7.82482C13.5333 7.95362 13.6376 8.05815 13.7667 8.05815C13.8957 8.05815 14 7.95362 14 7.82482V7.36468C14 7.23565 13.8957 7.13135 13.7667 7.13135Z" fill="black"/>
<path d="M13.7667 8.51123C13.6376 8.51123 13.5333 8.61576 13.5333 8.74456V9.20446C13.5333 9.33326 13.6376 9.4378 13.7667 9.4378C13.8957 9.4378 14 9.33326 14 9.20446V8.74456C14 8.61576 13.8957 8.51123 13.7667 8.51123Z" fill="black"/>
<path d="M11.4978 13.5332H11.0377C10.9086 13.5332 10.8043 13.6377 10.8043 13.7665C10.8043 13.8953 10.9086 13.9999 11.0377 13.9999H11.4978C11.6268 13.9999 11.7311 13.8953 11.7311 13.7665C11.7311 13.6377 11.6268 13.5332 11.4978 13.5332Z" fill="black"/>
<path d="M13.7667 9.89111C13.6376 9.89111 13.5333 9.99565 13.5333 10.1244V10.5843C13.5333 10.7131 13.6376 10.8177 13.7667 10.8177C13.8957 10.8177 14 10.7131 14 10.5843V10.1244C14 9.99565 13.8957 9.89111 13.7667 9.89111Z" fill="black"/>
<path d="M13.7667 4.37109C13.6376 4.37109 13.5333 4.47563 13.5333 4.60443V5.06456C13.5333 5.19336 13.6376 5.29789 13.7667 5.29789C13.8957 5.29789 14 5.19336 14 5.06456V4.60443C14 4.47563 13.8957 4.37109 13.7667 4.37109Z" fill="black"/>
<path d="M13.7667 5.75098C13.6376 5.75098 13.5333 5.85551 13.5333 5.98431V6.44444C13.5333 6.57324 13.6376 6.67778 13.7667 6.67778C13.8957 6.67778 14 6.57324 14 6.44444V5.98431C14 5.85551 13.8957 5.75098 13.7667 5.75098Z" fill="black"/>
<path d="M1.86663 2.09997C1.9955 2.09997 2.09997 1.9955 2.09997 1.86663C2.09997 1.73777 1.9955 1.6333 1.86663 1.6333C1.73777 1.6333 1.6333 1.73777 1.6333 1.86663C1.6333 1.9955 1.73777 2.09997 1.86663 2.09997Z" fill="black"/>
<path d="M1.16668 1.39977C1.29555 1.39977 1.40002 1.29531 1.40002 1.16644C1.40002 1.03757 1.29555 0.933105 1.16668 0.933105C1.03782 0.933105 0.93335 1.03757 0.93335 1.16644C0.93335 1.29531 1.03782 1.39977 1.16668 1.39977Z" fill="black"/>
<path d="M2.56671 1.39977C2.69557 1.39977 2.80004 1.29531 2.80004 1.16644C2.80004 1.03757 2.69557 0.933105 2.56671 0.933105C2.43784 0.933105 2.33337 1.03757 2.33337 1.16644C2.33337 1.29531 2.43784 1.39977 2.56671 1.39977Z" fill="black"/>
<path d="M3.26666 2.09997C3.39553 2.09997 3.49999 1.9955 3.49999 1.86663C3.49999 1.73777 3.39553 1.6333 3.26666 1.6333C3.13779 1.6333 3.03333 1.73777 3.03333 1.86663C3.03333 1.9955 3.13779 2.09997 3.26666 2.09997Z" fill="black"/>
<path d="M4.66668 2.09997C4.79555 2.09997 4.90002 1.9955 4.90002 1.86663C4.90002 1.73777 4.79555 1.6333 4.66668 1.6333C4.53782 1.6333 4.43335 1.73777 4.43335 1.86663C4.43335 1.9955 4.53782 2.09997 4.66668 2.09997Z" fill="black"/>
<path d="M7.46661 2.09997C7.59548 2.09997 7.69994 1.9955 7.69994 1.86663C7.69994 1.73777 7.59548 1.6333 7.46661 1.6333C7.33774 1.6333 7.23328 1.73777 7.23328 1.86663C7.23328 1.9955 7.33774 2.09997 7.46661 2.09997Z" fill="black"/>
<path d="M3.96661 1.39977C4.09548 1.39977 4.19994 1.29531 4.19994 1.16644C4.19994 1.03757 4.09548 0.933105 3.96661 0.933105C3.83774 0.933105 3.73328 1.03757 3.73328 1.16644C3.73328 1.29531 3.83774 1.39977 3.96661 1.39977Z" fill="black"/>
<path d="M5.36663 1.39977C5.4955 1.39977 5.59997 1.29531 5.59997 1.16644C5.59997 1.03757 5.4955 0.933105 5.36663 0.933105C5.23777 0.933105 5.1333 1.03757 5.1333 1.16644C5.1333 1.29531 5.23777 1.39977 5.36663 1.39977Z" fill="black"/>
<path d="M6.06671 2.09997C6.19557 2.09997 6.30004 1.9955 6.30004 1.86663C6.30004 1.73777 6.19557 1.6333 6.06671 1.6333C5.93784 1.6333 5.83337 1.73777 5.83337 1.86663C5.83337 1.9955 5.93784 2.09997 6.06671 2.09997Z" fill="black"/>
<path d="M6.76666 1.39977C6.89552 1.39977 6.99999 1.29531 6.99999 1.16644C6.99999 1.03757 6.89552 0.933105 6.76666 0.933105C6.63779 0.933105 6.53333 1.03757 6.53333 1.16644C6.53333 1.29531 6.63779 1.39977 6.76666 1.39977Z" fill="black"/>
<path d="M8.16668 1.39977C8.29555 1.39977 8.40002 1.29531 8.40002 1.16644C8.40002 1.03757 8.29555 0.933105 8.16668 0.933105C8.03782 0.933105 7.93335 1.03757 7.93335 1.16644C7.93335 1.29531 8.03782 1.39977 8.16668 1.39977Z" fill="black"/>
<path d="M8.86663 2.09997C8.9955 2.09997 9.09997 1.9955 9.09997 1.86663C9.09997 1.73777 8.9955 1.6333 8.86663 1.6333C8.73777 1.6333 8.6333 1.73777 8.6333 1.86663C8.6333 1.9955 8.73777 2.09997 8.86663 2.09997Z" fill="black"/>
<path d="M9.56671 1.39977C9.69557 1.39977 9.80004 1.29531 9.80004 1.16644C9.80004 1.03757 9.69557 0.933105 9.56671 0.933105C9.43784 0.933105 9.33337 1.03757 9.33337 1.16644C9.33337 1.29531 9.43784 1.39977 9.56671 1.39977Z" fill="black"/>
<path d="M10.2667 2.09997C10.3955 2.09997 10.5 1.9955 10.5 1.86663C10.5 1.73777 10.3955 1.6333 10.2667 1.6333C10.1378 1.6333 10.0333 1.73777 10.0333 1.86663C10.0333 1.9955 10.1378 2.09997 10.2667 2.09997Z" fill="black"/>
<path d="M1.86663 4.89977C1.9955 4.89977 2.09997 4.79531 2.09997 4.66644C2.09997 4.53757 1.9955 4.43311 1.86663 4.43311C1.73777 4.43311 1.6333 4.53757 1.6333 4.66644C1.6333 4.79531 1.73777 4.89977 1.86663 4.89977Z" fill="black"/>
<path d="M1.86663 3.49987C1.9955 3.49987 2.09997 3.3954 2.09997 3.26654C2.09997 3.13767 1.9955 3.0332 1.86663 3.0332C1.73777 3.0332 1.6333 3.13767 1.6333 3.26654C1.6333 3.3954 1.73777 3.49987 1.86663 3.49987Z" fill="black"/>
<path d="M1.16668 2.80016C1.29555 2.80016 1.40002 2.6957 1.40002 2.56683C1.40002 2.43796 1.29555 2.3335 1.16668 2.3335C1.03782 2.3335 0.93335 2.43796 0.93335 2.56683C0.93335 2.6957 1.03782 2.80016 1.16668 2.80016Z" fill="black"/>
<path d="M1.16668 4.20007C1.29555 4.20007 1.40002 4.0956 1.40002 3.96673C1.40002 3.83787 1.29555 3.7334 1.16668 3.7334C1.03782 3.7334 0.93335 3.83787 0.93335 3.96673C0.93335 4.0956 1.03782 4.20007 1.16668 4.20007Z" fill="black"/>
<path d="M2.56671 2.80016C2.69557 2.80016 2.80004 2.6957 2.80004 2.56683C2.80004 2.43796 2.69557 2.3335 2.56671 2.3335C2.43784 2.3335 2.33337 2.43796 2.33337 2.56683C2.33337 2.6957 2.43784 2.80016 2.56671 2.80016Z" fill="black"/>
<path d="M1.86663 7.70007C1.9955 7.70007 2.09997 7.5956 2.09997 7.46673C2.09997 7.33787 1.9955 7.2334 1.86663 7.2334C1.73777 7.2334 1.6333 7.33787 1.6333 7.46673C1.6333 7.5956 1.73777 7.70007 1.86663 7.70007Z" fill="black"/>
<path d="M1.86663 6.30016C1.9955 6.30016 2.09997 6.1957 2.09997 6.06683C2.09997 5.93796 1.9955 5.8335 1.86663 5.8335C1.73777 5.8335 1.6333 5.93796 1.6333 6.06683C1.6333 6.1957 1.73777 6.30016 1.86663 6.30016Z" fill="black"/>
<path d="M1.16668 5.59997C1.29555 5.59997 1.40002 5.4955 1.40002 5.36663C1.40002 5.23777 1.29555 5.1333 1.16668 5.1333C1.03782 5.1333 0.93335 5.23777 0.93335 5.36663C0.93335 5.4955 1.03782 5.59997 1.16668 5.59997Z" fill="black"/>
<path d="M1.16668 6.99987C1.29555 6.99987 1.40002 6.8954 1.40002 6.76654C1.40002 6.63767 1.29555 6.5332 1.16668 6.5332C1.03782 6.5332 0.93335 6.63767 0.93335 6.76654C0.93335 6.8954 1.03782 6.99987 1.16668 6.99987Z" fill="black"/>
<path d="M1.86663 10.4999C1.9955 10.4999 2.09997 10.3954 2.09997 10.2665C2.09997 10.1377 1.9955 10.0332 1.86663 10.0332C1.73777 10.0332 1.6333 10.1377 1.6333 10.2665C1.6333 10.3954 1.73777 10.4999 1.86663 10.4999Z" fill="black"/>
<path d="M1.86663 9.09997C1.9955 9.09997 2.09997 8.9955 2.09997 8.86663C2.09997 8.73777 1.9955 8.6333 1.86663 8.6333C1.73777 8.6333 1.6333 8.73777 1.6333 8.86663C1.6333 8.9955 1.73777 9.09997 1.86663 9.09997Z" fill="black"/>
<path d="M1.16668 8.39977C1.29555 8.39977 1.40002 8.29531 1.40002 8.16644C1.40002 8.03757 1.29555 7.93311 1.16668 7.93311C1.03782 7.93311 0.93335 8.03757 0.93335 8.16644C0.93335 8.29531 1.03782 8.39977 1.16668 8.39977Z" fill="black"/>
<path d="M1.16668 9.80016C1.29555 9.80016 1.40002 9.6957 1.40002 9.56683C1.40002 9.43796 1.29555 9.3335 1.16668 9.3335C1.03782 9.3335 0.93335 9.43796 0.93335 9.56683C0.93335 9.6957 1.03782 9.80016 1.16668 9.80016Z" fill="black"/>
</svg>
