<svg width="20" height="20" viewBox="0 0 20 20" fill="none" xmlns="http://www.w3.org/2000/svg">
<path d="M13.3334 4.99984C13.3334 3.15889 11.841 1.6665 10 1.6665C8.15907 1.6665 6.66669 3.15889 6.66669 4.99984V9.1665C6.66669 11.0075 8.15907 12.4998 10 12.4998C11.841 12.4998 13.3334 11.0075 13.3334 9.1665V4.99984Z" stroke="#999999" stroke-width="0.8" stroke-linecap="round" stroke-linejoin="round"/>
<path d="M15 13.5767C14.375 14.2868 13.6058 14.8554 12.7435 15.2446C11.8813 15.6337 10.946 15.8344 10 15.8333C9.05402 15.8344 8.11869 15.6337 7.25647 15.2446C6.39424 14.8554 5.62496 14.2868 5 13.5767" stroke="#999999" stroke-width="0.8" stroke-linecap="round" stroke-linejoin="round"/>
<path d="M10 15.8335V18.3335" stroke="#999999" stroke-width="0.8" stroke-linecap="round" stroke-linejoin="round"/>
<path d="M8.33331 18.3335H11.6666" stroke="#999999" stroke-width="0.8" stroke-linecap="round" stroke-linejoin="round"/>
</svg>
