<svg width="16" height="16" viewBox="0 0 16 16" fill="none" xmlns="http://www.w3.org/2000/svg">
<path d="M12.7188 2.21875H3.28125C1.47192 2.21875 0 3.69067 0 5.5V10.5212C0 12.3304 1.47192 13.8025 3.28125 13.8025H12.7188C14.5281 13.8025 16 12.3304 16 10.5212V5.5C16 3.69067 14.5281 2.21875 12.7188 2.21875ZM15.0625 10.5212C15.0625 11.8135 14.0111 12.865 12.7188 12.865H3.28125C1.98889 12.865 0.9375 11.8135 0.9375 10.5212V5.5C0.9375 4.20764 1.98889 3.15625 3.28125 3.15625H12.7188C14.0111 3.15625 15.0625 4.20764 15.0625 5.5V10.5212Z" fill="current"/>
<path d="M12.4938 5.88477H6.33405C6.07513 5.88477 5.8653 6.0946 5.8653 6.35352C5.8653 6.61243 6.07513 6.82227 6.33405 6.82227H12.4938C12.7527 6.82227 12.9626 6.61243 12.9626 6.35352C12.9626 6.0946 12.7527 5.88477 12.4938 5.88477Z" fill="current"/>
<path d="M3.5061 6.82227H4.93494C5.19385 6.82227 5.40369 6.61243 5.40369 6.35352C5.40369 6.0946 5.19385 5.88477 4.93494 5.88477H3.5061C3.24719 5.88477 3.03735 6.0946 3.03735 6.35352C3.03735 6.61243 3.24719 6.82227 3.5061 6.82227Z" fill="current"/>
<path d="M3.5061 8.47949H9.66589C9.9248 8.47949 10.1346 8.26953 10.1346 8.01074C10.1346 7.75183 9.9248 7.54199 9.66589 7.54199H3.5061C3.24719 7.54199 3.03735 7.75183 3.03735 8.01074C3.03735 8.26953 3.24719 8.47949 3.5061 8.47949Z" fill="current"/>
<path d="M12.4939 7.54199H11.0651C10.8062 7.54199 10.5963 7.75183 10.5963 8.01074C10.5963 8.26953 10.8062 8.47949 11.0651 8.47949H12.4939C12.7528 8.47949 12.9626 8.26953 12.9626 8.01074C12.9626 7.75183 12.7528 7.54199 12.4939 7.54199Z" fill="current"/>
<path d="M12.4938 9.19873H6.33405C6.07513 9.19873 5.8653 9.40869 5.8653 9.66748C5.8653 9.92639 6.07513 10.1362 6.33405 10.1362H12.4938C12.7527 10.1362 12.9626 9.92639 12.9626 9.66748C12.9626 9.40869 12.7527 9.19873 12.4938 9.19873Z" fill="current"/>
<path d="M4.93494 9.19873H3.5061C3.24719 9.19873 3.03735 9.40869 3.03735 9.66748C3.03735 9.92639 3.24719 10.1362 3.5061 10.1362H4.93494C5.19385 10.1362 5.40369 9.92639 5.40369 9.66748C5.40369 9.40869 5.19385 9.19873 4.93494 9.19873Z" fill="current"/>
</svg>
