<svg width="12" height="12" viewBox="0 0 12 12" fill="none" xmlns="http://www.w3.org/2000/svg">
<path d="M4.66667 6.16667H0.666667C0.576143 6.16667 0.5 6.09052 0.5 6V0.666667C0.5 0.576142 0.576142 0.5 0.666667 0.5H4.66667C4.75719 0.5 4.83333 0.576142 4.83333 0.666667V6C4.83333 6.09052 4.75719 6.16667 4.66667 6.16667ZM4.66667 11.5H0.666667C0.576142 11.5 0.5 11.4239 0.5 11.3333V8.66667C0.5 8.57614 0.576143 8.5 0.666667 8.5H4.66667C4.75719 8.5 4.83333 8.57614 4.83333 8.66667V11.3333C4.83333 11.4239 4.75719 11.5 4.66667 11.5ZM11.3333 11.5H7.33333C7.24281 11.5 7.16667 11.4239 7.16667 11.3333V6C7.16667 5.90948 7.24281 5.83333 7.33333 5.83333H11.3333C11.4239 5.83333 11.5 5.90948 11.5 6V11.3333C11.5 11.4239 11.4239 11.5 11.3333 11.5ZM7.16667 3.33333V0.666667C7.16667 0.576142 7.24281 0.5 7.33333 0.5H11.3333C11.4239 0.5 11.5 0.576142 11.5 0.666667V3.33333C11.5 3.42386 11.4239 3.5 11.3333 3.5H7.33333C7.24281 3.5 7.16667 3.42386 7.16667 3.33333Z" fill="current" stroke="current"/>
</svg>
