<svg width="60" height="18" viewBox="0 0 60 18" fill="none" xmlns="http://www.w3.org/2000/svg">
<path d="M4.07816 13.4506C4.07816 13.8791 4.20763 14.1841 4.46656 14.3654C4.74167 14.5467 5.12198 14.6374 5.60747 14.6374C5.85022 14.6374 6.10106 14.6209 6.35999 14.5879C6.61892 14.5385 6.84548 14.4808 7.03968 14.4148C7.18533 14.5962 7.3067 14.8022 7.4038 15.033C7.51708 15.2473 7.57373 15.511 7.57373 15.8242C7.57373 16.4505 7.33907 16.9615 6.86976 17.3571C6.41663 17.7527 5.60747 17.9505 4.44228 17.9505C3.01816 17.9505 1.91771 17.6209 1.14091 16.9615C0.380304 16.3022 0 15.2308 0 13.7473V3.16484C0.178015 3.11538 0.428854 3.06593 0.752518 3.01648C1.09236 2.95055 1.44839 2.91758 1.82061 2.91758C2.53267 2.91758 3.08289 3.04945 3.47129 3.31319C3.87587 3.56044 4.07816 4.09615 4.07816 4.92033V6.50275H7.25815C7.35525 6.68407 7.44426 6.91483 7.52518 7.19505C7.62228 7.45879 7.67082 7.75549 7.67082 8.08517C7.67082 8.66209 7.54136 9.08242 7.28243 9.34616C7.03968 9.59341 6.70793 9.71703 6.28716 9.71703H4.07816V13.4506Z" fill="#6F7BD0"/>
<path d="M16.3949 17.2088C16.1684 17.4066 15.8609 17.5632 15.4725 17.6786C15.0841 17.8104 14.6229 17.8764 14.0888 17.8764C13.4253 17.8764 12.8508 17.7775 12.3653 17.5797C11.8798 17.3984 11.5562 17.1346 11.3943 16.7885C11.2163 16.3929 11.0059 15.7665 10.7632 14.9093C10.5366 14.0522 10.3101 13.1126 10.0835 12.0907C9.85694 11.0687 9.63847 10.0302 9.42809 8.97528C9.23389 7.92033 9.08015 6.98901 8.96687 6.18132C9.19343 5.95055 9.49282 5.75275 9.86504 5.58791C10.2534 5.40659 10.6742 5.31593 11.1273 5.31593C11.6937 5.31593 12.155 5.4478 12.511 5.71154C12.8832 5.95879 13.1098 6.3956 13.1907 7.02198C13.3525 8.27473 13.4901 9.31319 13.6033 10.1374C13.7166 10.9451 13.8056 11.6126 13.8704 12.1401C13.9513 12.6511 14.0079 13.0467 14.0403 13.3269C14.0888 13.5907 14.1293 13.8049 14.1617 13.9698H14.2588C14.3073 13.706 14.3882 13.3269 14.5015 12.8324C14.631 12.3214 14.7766 11.7445 14.9385 11.1016C15.1003 10.4588 15.2702 9.76648 15.4482 9.02473C15.6262 8.26648 15.8043 7.51648 15.9823 6.77473C16.3059 6.59341 16.6215 6.4533 16.929 6.35439C17.2527 6.25549 17.6491 6.20604 18.1185 6.20604C18.6849 6.20604 19.1704 6.2967 19.5749 6.47802C19.9795 6.65934 20.2385 6.93956 20.3517 7.31868C20.5459 8.04396 20.732 8.75275 20.9101 9.44505C21.0881 10.1209 21.2499 10.7555 21.3955 11.3489C21.5412 11.9258 21.6707 12.4451 21.7839 12.9066C21.8972 13.3516 21.9781 13.706 22.0267 13.9698H22.1481C22.3261 12.7006 22.496 11.3819 22.6578 10.0137C22.8359 8.6456 22.9977 7.25275 23.1433 5.83517C23.4346 5.65385 23.7421 5.52198 24.0658 5.43956C24.3894 5.35714 24.7131 5.31593 25.0368 5.31593C25.6032 5.31593 26.0725 5.43956 26.4447 5.68681C26.8169 5.93407 27.003 6.36264 27.003 6.97253C27.003 7.23626 26.9626 7.63187 26.8816 8.15934C26.8007 8.68681 26.6955 9.28022 26.5661 9.93956C26.4366 10.5989 26.2829 11.2912 26.1049 12.0165C25.943 12.7418 25.7731 13.4423 25.5951 14.1181C25.4332 14.794 25.2714 15.4038 25.1096 15.9478C24.9639 16.4918 24.8345 16.9121 24.7212 17.2088C24.4946 17.4066 24.1467 17.5632 23.6774 17.6786C23.2081 17.8104 22.7064 17.8764 22.1723 17.8764C20.813 17.8764 20.0119 17.5302 19.7691 16.8379C19.672 16.5412 19.5507 16.1703 19.405 15.7253C19.2594 15.2637 19.1056 14.761 18.9438 14.217C18.782 13.6731 18.6282 13.1126 18.4826 12.5357C18.3369 11.9423 18.2156 11.3736 18.1185 10.8297C18.0052 11.4066 17.8676 12.0082 17.7058 12.6346C17.544 13.2445 17.374 13.8462 17.196 14.4396C17.0342 15.0165 16.8804 15.5522 16.7348 16.0467C16.5891 16.5247 16.4759 16.9121 16.3949 17.2088Z" fill="#6F7BD0"/>
<path d="M28.7755 2.22527C28.7755 1.5989 28.9777 1.07143 29.3823 0.642856C29.8031 0.214285 30.3533 0 31.033 0C31.7127 0 32.2548 0.214285 32.6594 0.642856C33.0802 1.07143 33.2906 1.5989 33.2906 2.22527C33.2906 2.85165 33.0802 3.37912 32.6594 3.80769C32.2548 4.23626 31.7127 4.45055 31.033 4.45055C30.3533 4.45055 29.8031 4.23626 29.3823 3.80769C28.9777 3.37912 28.7755 2.85165 28.7755 2.22527ZM33.0964 17.5549C32.9183 17.5879 32.6513 17.6291 32.2953 17.6786C31.9554 17.7445 31.6075 17.7775 31.2515 17.7775C30.8955 17.7775 30.5718 17.7527 30.2805 17.7033C30.0054 17.6538 29.7707 17.5549 29.5765 17.4066C29.3823 17.2582 29.2286 17.0604 29.1153 16.8132C29.0182 16.5495 28.9697 16.2115 28.9697 15.7994V5.73626C29.1477 5.7033 29.4066 5.66209 29.7464 5.61264C30.1025 5.5467 30.4585 5.51374 30.8145 5.51374C31.1706 5.51374 31.4861 5.53846 31.7612 5.58791C32.0525 5.63736 32.2953 5.73626 32.4895 5.88461C32.6837 6.03297 32.8293 6.23901 32.9264 6.50275C33.0397 6.75 33.0964 7.07967 33.0964 7.49176V17.5549Z" fill="#6F7BD0"/>
<path d="M45.6762 13.9945C45.6762 15.2473 45.215 16.228 44.2925 16.9368C43.3701 17.6456 42.0107 18 40.2144 18C39.5347 18 38.9035 17.9505 38.3209 17.8516C37.7383 17.7527 37.2367 17.6044 36.8159 17.4066C36.4113 17.1923 36.0877 16.9286 35.8449 16.6154C35.6183 16.3022 35.5051 15.9313 35.5051 15.5027C35.5051 15.1071 35.586 14.7775 35.7478 14.5137C35.9096 14.2335 36.1038 14.0027 36.3304 13.8214C36.7997 14.0852 37.3338 14.3242 37.9325 14.5385C38.5475 14.7363 39.2515 14.8352 40.0444 14.8352C40.5461 14.8352 40.9264 14.761 41.1854 14.6126C41.4605 14.4643 41.598 14.2665 41.598 14.0192C41.598 13.7885 41.5009 13.6071 41.3067 13.4753C41.1125 13.3434 40.7889 13.2363 40.3357 13.1538L39.6075 13.0055C38.1996 12.7253 37.1477 12.2885 36.4518 11.6951C35.7721 11.0852 35.4322 10.2198 35.4322 9.0989C35.4322 8.48901 35.5617 7.93681 35.8206 7.44231C36.0796 6.9478 36.4437 6.53571 36.913 6.20604C37.3823 5.87637 37.9406 5.62088 38.588 5.43956C39.2515 5.25824 39.9797 5.16758 40.7727 5.16758C41.3715 5.16758 41.9298 5.21703 42.4476 5.31593C42.9817 5.39835 43.4429 5.53022 43.8313 5.71154C44.2197 5.89286 44.5272 6.13187 44.7537 6.42857C44.9803 6.70879 45.0936 7.0467 45.0936 7.44231C45.0936 7.82143 45.0208 8.1511 44.8751 8.43132C44.7457 8.69506 44.5757 8.91758 44.3653 9.0989C44.2359 9.01648 44.0417 8.93407 43.7828 8.85165C43.5238 8.75275 43.2406 8.67033 42.9331 8.6044C42.6257 8.52198 42.3101 8.45604 41.9864 8.40659C41.6789 8.35714 41.3957 8.33242 41.1368 8.33242C40.6028 8.33242 40.1901 8.39835 39.8988 8.53022C39.6075 8.6456 39.4618 8.83516 39.4618 9.0989C39.4618 9.28022 39.5428 9.42857 39.7046 9.54396C39.8664 9.65934 40.1739 9.76648 40.627 9.86539L41.3796 10.0385C42.9331 10.4011 44.0336 10.9038 44.6809 11.5467C45.3444 12.1731 45.6762 12.989 45.6762 13.9945Z" fill="#6F7BD0"/>
<path d="M60 11.5714C60 12.5934 59.8463 13.5082 59.5388 14.3159C59.2313 15.1071 58.7944 15.7747 58.2279 16.3187C57.6777 16.8626 57.0142 17.2747 56.2374 17.5549C55.4606 17.8352 54.5948 17.9753 53.64 17.9753C52.6852 17.9753 51.8194 17.8269 51.0426 17.5302C50.2658 17.2335 49.5942 16.8132 49.0278 16.2692C48.4776 15.7088 48.0487 15.033 47.7412 14.2418C47.4338 13.4505 47.28 12.5604 47.28 11.5714C47.28 10.5989 47.4338 9.71703 47.7412 8.92583C48.0487 8.13462 48.4776 7.46703 49.0278 6.92308C49.5942 6.36264 50.2658 5.93407 51.0426 5.63736C51.8194 5.34066 52.6852 5.19231 53.64 5.19231C54.5948 5.19231 55.4606 5.3489 56.2374 5.66209C57.0142 5.95879 57.6777 6.38736 58.2279 6.9478C58.7944 7.49176 59.2313 8.15934 59.5388 8.95055C59.8463 9.74176 60 10.6154 60 11.5714ZM51.5038 11.5714C51.5038 12.5769 51.6899 13.3516 52.0622 13.8956C52.4506 14.4231 52.9846 14.6868 53.6643 14.6868C54.344 14.6868 54.8618 14.4148 55.2179 13.8709C55.5901 13.3269 55.7762 12.5604 55.7762 11.5714C55.7762 10.5824 55.5901 9.82418 55.2179 9.2967C54.8457 8.75275 54.3197 8.48077 53.64 8.48077C52.9603 8.48077 52.4344 8.75275 52.0622 9.2967C51.6899 9.82418 51.5038 10.5824 51.5038 11.5714Z" fill="#6F7BD0"/>
</svg>
