<svg width="14" height="12" viewBox="0 0 14 12" fill="none" xmlns="http://www.w3.org/2000/svg">
<path d="M9.88477 2.83222H1.38603L2.57627 1.63702C2.73612 1.47652 2.73558 1.2168 2.57507 1.05695C2.41454 0.897074 2.15485 0.897648 1.99503 1.05816L0.119547 2.94146C0.0383633 3.023 -0.00123047 3.1301 0.000300781 3.23677C0.000246094 3.23866 0 3.24049 0 3.24237C0 3.38459 0.0724336 3.50982 0.182355 3.58341L1.99503 5.40363C2.15491 5.56413 2.41456 5.56465 2.57507 5.40483C2.73558 5.24498 2.73612 4.98527 2.57627 4.82476L1.40891 3.65253H9.88477C11.7016 3.65253 13.1797 5.13063 13.1797 6.94745C13.1797 8.76428 11.7016 10.2424 9.88477 10.2424H0.410156C0.183641 10.2424 0 10.426 0 10.6525C0 10.879 0.183641 11.0627 0.410156 11.0627H9.88477C12.1539 11.0627 14 9.2166 14 6.94745C14 4.67831 12.1539 2.83222 9.88477 2.83222Z" fill="#999999"/>
</svg>
